<?xml version="1.0" encoding="utf-8"?>
<!-- Generator: Adobe Illustrator 17.1.0, SVG Export Plug-In . SVG Version: 6.00 Build 0)  -->
<!DOCTYPE svg PUBLIC "-//W3C//DTD SVG 1.1//EN" "http://www.w3.org/Graphics/SVG/1.1/DTD/svg11.dtd">
<svg version="1.1" id="Layer_1" xmlns="http://www.w3.org/2000/svg" xmlns:xlink="http://www.w3.org/1999/xlink" x="0px" y="0px"
	 viewBox="0 0 227 227" enable-background="new 0 0 227 227" xml:space="preserve">
<circle stroke="#F2C7C7" stroke-width="11" stroke-miterlimit="10" cx="113.5" cy="113.5" r="108"/>
<path fill="#F2C7C7" d="M124.332,113.609c0,28.408,0,56.332,0,84.445c-11.299,0-22.232,0-33.453,0c0-27.823,0-55.551,0-83.725
	c-5.989,0-11.718,0-17.613,0c0-9.686,0-18.925,0-28.452c5.671,0,11.329,0,17.488,0c0-1.387,0-2.496,0-3.608
	c0.003-7.18-0.115-14.363,0.037-21.543c0.331-15.77,8.255-26.142,23.748-28.462c11.593-1.732,23.514-1.285,35.56-1.819
	c0,10.223,0,19.659,0,29.639c-3.564,0-7.102-0.03-10.643,0.01c-3.162,0.037-6.338,0.003-9.483,0.274
	c-3.649,0.315-5.387,2.033-5.482,5.688c-0.169,6.419-0.047,12.848-0.047,19.622c8.627,0,17.126,0,25.81,0
	c-0.842,9.466-1.654,18.563-2.486,27.928C140.057,113.609,132.495,113.609,124.332,113.609z"/>
</svg>
