<?xml version="1.0" encoding="utf-8"?>
<!-- Generator: Adobe Illustrator 17.1.0, SVG Export Plug-In . SVG Version: 6.00 Build 0)  -->
<!DOCTYPE svg PUBLIC "-//W3C//DTD SVG 1.1//EN" "http://www.w3.org/Graphics/SVG/1.1/DTD/svg11.dtd">
<svg version="1.1" id="Layer_1" xmlns="http://www.w3.org/2000/svg" xmlns:xlink="http://www.w3.org/1999/xlink" x="0px" y="0px"
	 viewBox="0 0 559.002 156" enable-background="new 0 0 559.002 156" xml:space="preserve">
<g>
	<path fill="#FFFFFF" d="M21.731,135.773h38.764v7.636c0,1.046-0.229,1.731-0.685,2.056c-0.459,0.327-1.144,0.489-2.056,0.489
		H10.768V12.825c0-0.912,0.064-1.664,0.196-2.251c0.128-0.587,0.52-0.979,1.175-1.174c0.651-0.196,1.729-0.324,3.23-0.392
		c1.499-0.064,3.622-0.098,6.363-0.098V135.773z"/>
	<path fill="#FFFFFF" d="M119.814,135.97c0,4.57-0.098,7.375-0.293,8.418c-0.196,1.046-0.881,1.566-2.056,1.566H70.674V11.651
		c0-0.392,0.128-0.848,0.392-1.371c0.26-0.26,0.52-0.554,0.783-0.881c0.26-0.324,0.716-0.49,1.371-0.49h46.791
		c0,4.439-0.067,7.213-0.196,8.321c-0.131,1.11-0.719,1.664-1.762,1.664H81.247v47.182h34.457c0,4.179-0.098,6.886-0.293,8.125
		c-0.196,1.242-0.881,1.86-2.056,1.86H81.247v59.908H119.814z"/>
	<path fill="#FFFFFF" d="M180.896,135.97c0,4.57-0.1,7.375-0.295,8.418c-0.195,1.046-0.881,1.566-2.055,1.566h-46.791V11.651
		c0-0.392,0.129-0.848,0.391-1.371c0.26-0.26,0.521-0.554,0.783-0.881c0.26-0.324,0.717-0.49,1.371-0.49h46.791
		c0,4.439-0.068,7.213-0.195,8.321c-0.133,1.11-0.719,1.664-1.764,1.664h-36.805v47.182h34.457c0,4.179-0.1,6.886-0.295,8.125
		c-0.195,1.242-0.881,1.86-2.055,1.86h-32.107v59.908H180.896z"/>
	<path fill="#FFFFFF" d="M192.444,11.651c0-0.392,0.129-0.848,0.392-1.371c0.26-0.26,0.521-0.554,0.783-0.881
		c0.26-0.324,0.716-0.49,1.37-0.49h20.361c12.267,0,21.046,3.328,26.332,9.985c5.286,6.656,7.929,15.729,7.929,27.213
		c0,11.095-1.795,19.773-5.384,26.039c-3.591,6.265-8.517,10.704-14.781,13.313c1.435,1.829,3.133,4.405,5.091,7.733
		c1.957,3.328,3.915,7.375,5.873,12.138c1.958,4.766,3.75,10.278,5.384,16.543c1.631,6.266,2.771,13.313,3.426,21.145
		c0.129,1.175-0.098,1.958-0.685,2.35c-0.588,0.392-2.123,0.651-4.602,0.782c-0.782,0-1.664,0-2.643,0s-2.123-0.066-3.426-0.195
		c-0.915-8.874-2.221-16.641-3.916-23.298c-1.697-6.656-3.493-12.333-5.384-17.032c-1.894-4.699-3.72-8.483-5.481-11.355
		c-1.763-2.87-3.166-5.023-4.21-6.461c-0.654,0.131-1.37,0.196-2.153,0.196s-1.502,0-2.153,0h-11.551v55.405
		c0,0.654-0.067,1.144-0.196,1.468c-0.131,0.328-0.522,0.588-1.174,0.783c-0.655,0.196-1.698,0.294-3.133,0.294
		c-1.438,0-3.46,0-6.069,0V11.651z M237.865,45.716c0-3.916-0.327-7.503-0.979-10.768c-0.654-3.261-1.829-6.1-3.523-8.517
		c-1.698-2.414-3.916-4.307-6.656-5.677c-2.741-1.371-6.201-2.056-10.377-2.056h-13.312v59.125h12.334
		C230.358,77.823,237.865,67.123,237.865,45.716z"/>
</g>
<g>
	<path fill="#FFE1B6" d="M305.109,80.979c0.576-2.156,1.463-4.084,2.664-5.782c1.199-1.698,2.592-3.14,4.176-4.327
		c-0.912-1.563-1.849-3.073-2.809-4.529s-2.016-2.831-3.168-4.125c-2.112-2.372-4.632-4.07-7.56-5.095
		c-2.929-1.023-5.904-1.617-8.928-1.779c-1.488-0.053-3.001,0.028-4.536,0.243c-1.537,0.216-3.001,0.594-4.393,1.132
		c-1.393,0.54-2.688,1.268-3.888,2.184c-1.2,0.917-2.185,2.049-2.952,3.396c-0.673,1.294-1.224,2.79-1.655,4.488
		c-0.433,1.698-0.637,3.356-0.612,4.974c0.023,1.618,0.324,3.114,0.899,4.488c0.576,1.375,1.536,2.414,2.881,3.114
		c0.863,0.647,1.836,1.079,2.916,1.294c1.079,0.216,2.147,0.23,3.203,0.041c1.056-0.188,2.063-0.593,3.024-1.213
		c0.96-0.619,1.752-1.415,2.376-2.386c0.623-0.916,1.104-1.832,1.44-2.75c0.335-0.916,0.6-1.739,0.792-2.466
		c0.19-0.728,0.323-1.307,0.396-1.739c0.072-0.431,0.155-0.619,0.252-0.566c0.048,0,0.096,0.23,0.145,0.688
		c0.047,0.458,0.036,1.065-0.036,1.82c-0.072,0.755-0.241,1.658-0.504,2.709c-0.265,1.051-0.709,2.143-1.332,3.275
		c-0.576,1.241-1.429,2.251-2.557,3.033c-1.128,0.782-2.34,1.322-3.636,1.617c-1.296,0.297-2.604,0.337-3.924,0.122
		c-1.321-0.215-2.484-0.7-3.492-1.456c-1.776-1.023-3.023-2.386-3.744-4.084c-0.72-1.698-1.104-3.504-1.151-5.418
		c-0.049-1.914,0.19-3.828,0.72-5.742c0.527-1.913,1.176-3.599,1.944-5.054c0.959-1.671,2.124-3.033,3.491-4.084
		c1.368-1.051,2.832-1.873,4.393-2.467c1.559-0.593,3.168-0.997,4.824-1.213c1.655-0.215,3.251-0.296,4.787-0.243
		c3.168,0.162,6.337,0.796,9.505,1.9c3.168,1.105,5.976,2.979,8.424,5.621c1.199,1.402,2.291,2.871,3.275,4.407
		c0.983,1.537,1.956,3.087,2.916,4.65c1.775-1.078,3.768-1.833,5.977-2.265c1.487-0.485,3.132-0.579,4.932-0.283
		c1.8,0.297,3.432,0.944,4.896,1.941c1.463,0.998,2.651,2.318,3.563,3.962c0.911,1.646,1.225,3.599,0.937,5.863
		c-0.769,2.211-1.944,3.761-3.528,4.65c-1.584,0.89-3.252,1.282-5.004,1.173c-1.753-0.107-3.42-0.66-5.004-1.658
		c-1.584-0.997-2.784-2.305-3.601-3.922c-0.673-1.078-1.308-2.143-1.907-3.194c-0.602-1.051-1.213-2.115-1.836-3.194
		c-1.44,1.079-2.689,2.373-3.744,3.882c-1.057,1.51-1.825,3.154-2.305,4.933c-0.528,1.995-0.637,3.962-0.323,5.903
		c0.312,1.941,0.947,3.72,1.907,5.337c2.112,2.319,4.596,3.937,7.452,4.853c2.855,0.917,5.892,1.322,9.108,1.213
		c3.215-0.107,6.491-0.593,9.828-1.456c3.335-0.862,6.552-1.941,9.647-3.235c3.097-1.294,5.977-2.695,8.641-4.205
		c2.664-1.509,4.907-2.912,6.731-4.206c4.464-3.288,8.7-6.779,12.708-10.473c4.008-3.692,7.92-7.332,11.736-10.918
		c3.815-3.584,7.619-6.927,11.412-10.028c3.791-3.1,7.691-5.688,11.7-7.764c4.007-2.075,8.207-3.45,12.6-4.125
		c4.392-0.673,9.107-0.39,14.147,0.849l3.673,1.456c-5.04-1.24-9.828-1.28-14.364-0.122c-4.536,1.16-8.94,3.114-13.212,5.863
		c-4.273,2.75-8.437,6.053-12.492,9.907c-4.057,3.855-8.136,7.832-12.24,11.928c-4.104,4.098-8.269,8.075-12.492,11.929
		c-4.224,3.855-8.616,7.157-13.176,9.907c-3.312,1.995-7.261,3.761-11.844,5.297c-4.584,1.537-9.349,2.467-14.292,2.79
		c-1.488,0.594-3.36,0.971-5.616,1.132c-2.545,0.109-5.22-0.174-8.028-0.849c-2.808-0.673-5.22-1.63-7.235-2.871
		c-1.537-0.7-2.916-1.725-4.141-3.073c-1.224-1.347-2.208-2.871-2.951-4.569c-0.745-1.698-1.201-3.504-1.368-5.418
		C304.4,84.687,304.58,82.813,305.109,80.979z M282.789,65.291c0.815,0,1.523,0.337,2.124,1.011c0.6,0.675,0.9,1.47,0.9,2.386
		c0,0.971-0.301,1.779-0.9,2.426c-0.601,0.647-1.309,0.971-2.124,0.971c-0.816,0-1.524-0.324-2.124-0.971
		c-0.601-0.647-0.9-1.456-0.9-2.426c0-0.916,0.3-1.711,0.9-2.386C281.264,65.628,281.973,65.291,282.789,65.291z M286.821,76.855
		c-0.192,0.378-0.408,0.647-0.648,0.809c-0.144,0.108-0.264,0.216-0.359,0.323c-0.049-0.053,0.023-0.188,0.216-0.404
		c0.191-0.215,0.407-0.512,0.647-0.89c0.24-0.376,0.407-0.673,0.504-0.89c0.096-0.215,0.168-0.323,0.217-0.323
		c0.047,0,0.023,0.135-0.072,0.404C287.228,76.155,287.06,76.479,286.821,76.855z M288.333,73.054c-0.097,0-0.072-0.376,0.072-1.132
		c0.144-0.754,0.239-1.644,0.288-2.668c0.047-1.186-0.061-1.9-0.324-2.143c-0.265-0.243-0.372-0.417-0.324-0.526
		c0-0.053,0.06-0.067,0.18-0.041c0.12,0.028,0.253,0.135,0.396,0.324c0.144,0.189,0.275,0.473,0.396,0.849
		c0.119,0.378,0.154,0.89,0.107,1.537c-0.048,1.079-0.18,1.995-0.396,2.75C288.513,72.759,288.38,73.108,288.333,73.054z
		 M491.085,75.399c1.775,1.079,3.035,2.454,3.78,4.125c0.743,1.672,1.127,3.465,1.152,5.378c0.023,1.915-0.217,3.815-0.721,5.702
		c-0.504,1.888-1.141,3.558-1.908,5.014c-0.96,1.672-2.124,3.047-3.491,4.125c-1.368,1.079-2.845,1.915-4.429,2.507
		c-1.584,0.594-3.204,0.999-4.859,1.213c-1.656,0.216-3.253,0.297-4.788,0.243c-1.584-0.107-3.181-0.31-4.788-0.607
		c-1.608-0.295-3.181-0.728-4.716-1.294c-1.537-0.566-3.024-1.306-4.464-2.224c-1.44-0.916-2.761-2.048-3.96-3.396
		c-1.201-1.401-2.293-2.871-3.276-4.408c-0.984-1.537-1.956-3.086-2.916-4.65c-0.961,0.54-1.933,0.998-2.916,1.375
		c-0.984,0.378-2.005,0.675-3.061,0.89c-1.488,0.485-3.12,0.58-4.896,0.283c-1.776-0.296-3.409-0.943-4.896-1.941
		c-1.488-0.997-2.688-2.317-3.6-3.963c-0.912-1.644-1.224-3.599-0.936-5.863c0.767-2.156,1.943-3.692,3.527-4.61
		c1.584-0.916,3.252-1.334,5.004-1.253c1.752,0.081,3.42,0.62,5.004,1.617c1.585,0.999,2.784,2.305,3.601,3.922
		c0.672,1.079,1.307,2.157,1.908,3.235c0.6,1.079,1.211,2.157,1.836,3.235c1.439-1.078,2.688-2.372,3.744-3.882
		c1.055-1.509,1.823-3.181,2.304-5.014c0.432-1.617,0.576-3.235,0.432-4.852c-0.144-1.618-0.517-3.14-1.116-4.569
		c-0.601-1.428-1.429-2.722-2.483-3.882c-1.057-1.159-2.304-2.062-3.744-2.709c-1.296-0.862-2.856-1.604-4.68-2.224
		c-1.825-0.619-3.672-1.092-5.544-1.415c-4.705,0.162-9.217,1.267-13.536,3.315c-4.32,2.05-8.545,4.65-12.672,7.804
		c-4.129,3.154-8.197,6.712-12.204,10.675c-4.009,3.963-8.053,7.953-12.132,11.969c-4.081,4.017-8.221,7.899-12.421,11.646
		c-4.2,3.748-8.531,6.969-12.995,9.664c-2.641,1.564-5.713,3.033-9.217,4.407c-3.504,1.375-7.188,2.467-11.052,3.275
		c-3.864,0.809-7.788,1.227-11.771,1.253c-3.985,0.028-7.776-0.525-11.376-1.658c-3.601-1.132-6.876-2.924-9.828-5.378
		c-2.952-2.453-5.341-5.754-7.164-9.907c1.343,3.127,3.06,5.634,5.147,7.521c2.088,1.888,4.416,3.275,6.984,4.165
		c2.567,0.889,5.315,1.362,8.244,1.415c2.927,0.054,5.904-0.202,8.928-0.768c3.024-0.566,6.023-1.361,9-2.386
		c2.976-1.023,5.832-2.17,8.568-3.437c2.735-1.266,5.256-2.574,7.56-3.922c2.304-1.347,4.296-2.614,5.977-3.801
		c4.271-3.126,8.363-6.47,12.275-10.028c3.912-3.558,7.728-7.089,11.448-10.594c3.719-3.504,7.403-6.86,11.052-10.068
		c3.647-3.207,7.344-6.065,11.088-8.572s7.607-4.515,11.593-6.025c3.983-1.509,8.183-2.345,12.6-2.507
		c0.288-0.053,0.576-0.081,0.864-0.081s0.6-0.026,0.936-0.081c2.544-0.107,5.22,0.176,8.028,0.849
		c2.808,0.675,5.22,1.631,7.235,2.871c1.536,0.701,2.916,1.726,4.141,3.073c1.224,1.348,2.207,2.871,2.952,4.569
		c0.743,1.698,1.199,3.505,1.367,5.418c0.168,1.915-0.012,3.789-0.539,5.621c-0.576,2.157-1.465,4.071-2.664,5.742
		c-1.201,1.671-2.593,3.127-4.177,4.367c0.911,1.564,1.848,3.073,2.809,4.529c0.959,1.456,2.016,2.831,3.168,4.125
		c2.111,2.373,4.632,4.071,7.56,5.095c2.928,1.025,5.904,1.618,8.929,1.779c1.486,0.054,2.987-0.026,4.5-0.243
		c1.512-0.215,2.976-0.592,4.392-1.132c1.415-0.539,2.711-1.254,3.888-2.143c1.176-0.89,2.172-2.035,2.988-3.438
		c0.672-1.347,1.224-2.857,1.656-4.528c0.432-1.671,0.636-3.329,0.611-4.974c-0.024-1.644-0.323-3.14-0.899-4.489
		c-0.576-1.347-1.537-2.372-2.88-3.073c-0.864-0.647-1.836-1.078-2.916-1.294c-1.08-0.215-2.149-0.229-3.204-0.041
		c-1.057,0.189-2.064,0.58-3.024,1.173c-0.961,0.594-1.753,1.402-2.376,2.426c-0.576,0.917-1.044,1.82-1.404,2.709
		c-0.359,0.89-0.624,1.698-0.792,2.426c-0.168,0.728-0.3,1.308-0.396,1.739c-0.097,0.432-0.192,0.647-0.288,0.647
		c-0.048,0-0.097-0.229-0.144-0.687c-0.049-0.458-0.036-1.078,0.035-1.86c0.072-0.781,0.24-1.685,0.505-2.709
		c0.263-1.023,0.707-2.103,1.332-3.235c0.575-1.186,1.427-2.184,2.556-2.992c1.127-0.809,2.34-1.361,3.636-1.658
		c1.296-0.295,2.604-0.336,3.924-0.121C488.913,74.16,490.077,74.645,491.085,75.399z M312.165,96.588
		c-0.72-0.539-1.44-1.186-2.16-1.941C310.628,95.402,311.348,96.049,312.165,96.588z M320.013,69.577
		c-0.912,0.216-1.8,0.485-2.664,0.809c-0.863,0.324-1.704,0.728-2.52,1.213c0.623,1.079,1.224,2.13,1.8,3.154
		c0.576,1.025,1.199,2.05,1.872,3.073c0.623,1.456,1.596,2.562,2.916,3.315c1.319,0.756,2.7,1.16,4.14,1.213
		c1.44,0.054,2.772-0.243,3.996-0.89c1.225-0.647,2.027-1.617,2.412-2.911c0.24-1.671,0.012-3.154-0.684-4.448
		c-0.696-1.294-1.645-2.345-2.844-3.154c-1.201-0.809-2.557-1.334-4.068-1.577S321.404,69.2,320.013,69.577z M445.365,87.126
		c1.919-0.324,3.647-0.971,5.184-1.941c-0.624-1.078-1.224-2.129-1.8-3.154c-0.576-1.023-1.2-2.048-1.872-3.073
		c-0.624-1.509-1.597-2.641-2.916-3.397c-1.32-0.754-2.7-1.145-4.14-1.172c-1.44-0.026-2.772,0.283-3.996,0.93
		s-2.028,1.617-2.412,2.911c-0.241,1.672-0.013,3.154,0.684,4.448c0.695,1.294,1.644,2.333,2.845,3.114
		c1.199,0.782,2.556,1.308,4.067,1.577C442.521,87.639,443.973,87.558,445.365,87.126z M477.045,83.648
		c0.096,0.054,0.072,0.458-0.072,1.213c-0.144,0.756-0.24,1.646-0.287,2.669c0,0.594,0.035,1.051,0.107,1.375
		c0.072,0.324,0.145,0.566,0.216,0.728c0.072,0.162,0.145,0.283,0.216,0.364c0.072,0.081,0.108,0.149,0.108,0.202
		c0,0.055-0.061,0.055-0.18,0c-0.12-0.053-0.252-0.174-0.396-0.364c-0.144-0.188-0.276-0.458-0.396-0.809
		c-0.121-0.35-0.156-0.849-0.108-1.496c0.048-1.078,0.18-1.994,0.396-2.75C476.865,84.026,476.997,83.648,477.045,83.648z
		 M478.556,79.928c0.288-0.431,0.505-0.7,0.648-0.809c0.144-0.107,0.264-0.215,0.36-0.324c0.047,0.055-0.013,0.19-0.181,0.405
		c-0.168,0.216-0.372,0.513-0.611,0.889c-0.288,0.324-0.48,0.607-0.576,0.849c-0.097,0.243-0.169,0.364-0.216,0.364
		c-0.049,0-0.025-0.134,0.071-0.404C478.148,80.629,478.316,80.306,478.556,79.928z M482.589,91.493
		c-0.816,0-1.524-0.336-2.124-1.011c-0.601-0.673-0.899-1.496-0.899-2.466c0-0.917,0.299-1.711,0.899-2.386
		c0.6-0.674,1.308-1.011,2.124-1.011c0.815,0,1.523,0.337,2.124,1.011c0.6,0.675,0.9,1.469,0.9,2.386c0,0.97-0.301,1.793-0.9,2.466
		C484.112,91.157,483.404,91.493,482.589,91.493z"/>
</g>
</svg>
