<?xml version="1.0" encoding="utf-8"?>
<!-- Generator: Adobe Illustrator 17.1.0, SVG Export Plug-In . SVG Version: 6.00 Build 0)  -->
<!DOCTYPE svg PUBLIC "-//W3C//DTD SVG 1.1//EN" "http://www.w3.org/Graphics/SVG/1.1/DTD/svg11.dtd">
<svg version="1.1" id="Layer_1" xmlns="http://www.w3.org/2000/svg" xmlns:xlink="http://www.w3.org/1999/xlink" x="0px" y="0px"
	 viewBox="0 0 227 227" enable-background="new 0 0 227 227" xml:space="preserve">
<circle stroke="#F2C7C7" stroke-width="11" stroke-miterlimit="10" cx="113.5" cy="113.5" r="108"/>
<g>
	<path fill="#F1C8C7" d="M106.65,139.088c-0.141,0.371-0.264,0.62-0.331,0.883c-1.258,4.947-2.504,9.896-3.763,14.843
		c-0.764,3-1.522,6.003-2.325,8.993c-1.243,4.631-3.158,8.992-5.365,13.237c-3.102,5.965-6.828,11.521-10.925,16.839
		c-0.204,0.265-0.405,0.54-0.648,0.767c-0.793,0.738-1.889,0.411-2.102-0.659c-0.205-1.025-0.336-2.066-0.468-3.104
		c-0.472-3.699-0.768-7.414-0.923-11.14c-0.122-2.931-0.136-5.862,0.043-8.793c0.128-2.09,0.282-4.176,0.543-6.256
		c0.318-2.539,0.846-5.033,1.433-7.518c2.23-9.447,4.454-18.895,6.68-28.343c1.535-6.516,3.062-13.034,4.618-19.545
		c0.145-0.605,0.12-1.12-0.113-1.695c-2.031-5.009-2.803-10.228-2.569-15.613c0.158-3.634,0.908-7.132,2.334-10.481
		c1.368-3.212,3.327-6.007,5.995-8.263c2.151-1.819,4.632-2.949,7.444-3.377c1.772-0.269,3.503-0.175,5.235,0.202
		c3.46,0.754,5.931,2.788,7.556,5.892c0.985,1.881,1.496,3.901,1.656,6.011c0.235,3.081-0.21,6.099-0.88,9.093
		c-1.015,4.538-2.435,8.961-3.797,13.401c-1.263,4.12-2.546,8.238-3.476,12.45c-0.924,4.188-0.205,8.089,2.38,11.551
		c2.282,3.055,5.387,4.862,9.117,5.53c4.866,0.871,9.395-0.149,13.608-2.671c3.175-1.9,5.744-4.46,7.953-7.4
		c2.842-3.782,4.919-7.972,6.514-12.407c1.563-4.344,2.631-8.813,3.332-13.377c0.72-4.69,1.05-9.404,0.961-14.146
		c-0.082-4.348-0.822-8.588-2.375-12.651c-3.301-8.638-9.329-14.66-17.797-18.274c-3.363-1.435-6.882-2.305-10.5-2.845
		c-3.793-0.566-7.604-0.667-11.405-0.409c-9.098,0.618-17.443,3.42-24.764,8.985c-4.945,3.759-8.874,8.393-11.775,13.879
		c-2.467,4.666-4.075,9.628-4.805,14.858c-0.464,3.328-0.605,6.677-0.278,10.027c0.53,5.426,2.357,10.338,5.897,14.551
		c0.215,0.256,0.417,0.524,0.634,0.78c1.001,1.182,1.234,2.514,0.84,3.999c-0.525,1.981-1.012,3.973-1.52,5.959
		c-0.197,0.77-0.368,1.55-0.619,2.302c-0.35,1.046-1.019,1.807-2.122,2.136c-0.498,0.148-0.994,0.19-1.485,0.051
		c-0.521-0.147-1.04-0.322-1.536-0.538c-4.898-2.141-8.741-5.526-11.698-9.953c-2.375-3.557-3.945-7.459-5.001-11.585
		c-1.33-5.193-1.788-10.47-1.567-15.817c0.213-5.145,1.243-10.13,2.971-14.968c4.845-13.563,13.634-23.863,25.947-31.222
		c2.986-1.785,6.145-3.217,9.367-4.527c4.243-1.725,8.643-2.87,13.132-3.689c2.22-0.405,4.462-0.689,6.716-0.882
		c2.757-0.237,5.516-0.398,8.281-0.371c7.675,0.073,15.182,1.209,22.371,3.96c11.551,4.42,20.983,11.559,27.738,22.037
		c3.794,5.885,6.245,12.294,7.396,19.196c0.407,2.439,0.617,4.9,0.611,7.379c-0.007,2.933-0.046,5.864-0.32,8.787
		c-0.923,9.842-3.231,19.302-7.781,28.14c-2.881,5.595-6.52,10.628-11.123,14.943c-1.961,1.838-4.084,3.465-6.309,4.972
		c-4.639,3.143-9.746,5.149-15.204,6.287c-3.79,0.79-7.641,1.104-11.494,0.78c-5.668-0.476-10.855-2.369-15.373-5.881
		c-1.689-1.313-3.185-2.847-4.336-4.679C106.977,139.532,106.85,139.37,106.65,139.088z"/>
</g>
</svg>
