<?xml version="1.0" encoding="utf-8"?>
<!-- Generator: Adobe Illustrator 17.1.0, SVG Export Plug-In . SVG Version: 6.00 Build 0)  -->
<!DOCTYPE svg PUBLIC "-//W3C//DTD SVG 1.1//EN" "http://www.w3.org/Graphics/SVG/1.1/DTD/svg11.dtd">
<svg version="1.1" id="Layer_1" xmlns="http://www.w3.org/2000/svg" xmlns:xlink="http://www.w3.org/1999/xlink" x="0px" y="0px"
	 viewBox="0 0 227 227" enable-background="new 0 0 227 227" xml:space="preserve">
<circle stroke="#F7E1C5" stroke-width="11" stroke-miterlimit="10" cx="113.5" cy="113.5" r="108"/>
<path fill="#F8E1C5" d="M40.354,159.897c16.091,1.185,30.58-2.813,43.848-12.727c-8.333-0.536-15.198-3.433-20.785-9.127
	c-3.271-3.334-5.693-7.178-7.12-11.855c4.375,0.552,8.514,0.722,12.956-0.514c-17.224-4.628-24.063-19.352-23.468-29.744
	c2.089,0.792,4.113,1.709,6.225,2.319c2.084,0.602,4.258,0.895,6.523,1.118c-6.049-4.861-10.255-10.802-11.859-18.393
	c-1.603-7.585-0.598-14.77,3.347-21.681c16.31,19.163,36.778,29.676,61.894,31.475c-0.142-1.174-0.251-2.205-0.393-3.231
	c-2.226-15.968,9.658-31.475,25.613-33.462c9.789-1.219,18.247,1.502,25.448,8.273c0.541,0.508,1.739,0.684,2.521,0.512
	c6.045-1.33,11.741-3.607,17.477-6.943c-2.336,7.106-6.525,12.288-12.273,16.375c5.565-0.521,10.811-2.107,15.909-4.267
	c0.143,0.169,0.286,0.34,0.429,0.509c-3.023,3.368-5.976,6.803-9.1,10.074c-1.505,1.575-3.373,2.799-4.994,4.272
	c-0.459,0.417-0.907,1.159-0.891,1.74c0.388,14.247-2.551,27.808-8.823,40.552c-11.125,22.602-28.505,38.107-53.021,44.732
	c-23.879,6.453-46.705,3.489-68.122-9.157C41.239,160.478,40.8,160.181,40.354,159.897z"/>
</svg>
